<?xml version="1.0" standalone="no"?>
<!DOCTYPE svg PUBLIC "-//W3C//DTD SVG 20010904//EN"
 "http://www.w3.org/TR/2001/REC-SVG-20010904/DTD/svg10.dtd">
<svg version="1.0" xmlns="http://www.w3.org/2000/svg"
 width="300.000000pt" height="184.000000pt" viewBox="0 0 300.000000 184.000000"
 preserveAspectRatio="xMidYMid meet">
<metadata>
Created by potrace 1.10, written by Peter Selinger 2001-2011
</metadata>
<g transform="translate(0.000000,184.000000) scale(0.100000,-0.100000)"
fill="#000000" stroke="none">
<path d="M1168 1767 c-21 -17 -65 -91 -96 -160 -2 -4 8 -2 21 4 14 6 33 9 42
5 9 -3 64 -104 121 -223 163 -337 164 -340 189 -363 32 -30 92 -36 130 -12 24
15 74 95 103 164 2 5 -8 3 -22 -3 -36 -17 -51 -1 -102 106 -148 316 -224 463
-249 483 -38 30 -101 29 -137 -1z m123 -38 c11 -11 47 -75 79 -142 31 -67 85
-180 119 -252 35 -71 76 -144 93 -161 34 -36 33 -55 -9 -104 -26 -32 -59 -38
-94 -20 -12 7 -74 121 -153 283 -73 150 -143 282 -155 294 -28 29 -27 55 5 92
32 38 83 42 115 10z"/>
<path d="M1633 1772 c-18 -14 -93 -141 -93 -158 0 -2 11 -2 25 2 33 8 50 -7
79 -70 105 -225 247 -505 266 -521 30 -27 109 -28 139 -1 31 29 104 169 83
160 -51 -21 -51 -22 -201 282 -155 314 -162 324 -238 324 -21 0 -48 -8 -60
-18z m119 -39 c19 -23 42 -68 168 -328 56 -115 113 -222 126 -236 30 -31 26
-65 -13 -104 -28 -28 -49 -31 -88 -13 -26 12 -35 29 -224 420 -39 80 -80 153
-92 162 -17 11 -20 21 -15 43 16 61 103 97 138 56z"/>
<path d="M948 1333 c-9 -10 -32 -51 -52 -91 l-37 -74 22 -54 c29 -69 66 -104
115 -110 59 -7 96 21 139 105 19 39 35 73 35 76 0 2 -11 0 -25 -7 -33 -15 -50
0 -83 72 -43 94 -80 121 -114 83z m61 -62 c12 -16 21 -33 21 -38 0 -6 16 -30
36 -56 35 -44 35 -46 20 -76 -35 -66 -89 -78 -136 -30 -50 52 -50 115 0 197
24 39 33 40 59 3z"/>
<path d="M1819 713 c-18 -4 -46 -50 -36 -59 8 -8 37 21 37 36 0 21 20 -1 21
-23 0 -12 3 -16 6 -9 4 10 8 10 19 1 11 -9 18 -9 26 -1 7 7 3 18 -15 36 -26
26 -29 27 -58 19z"/>
<path d="M1660 634 c0 -75 0 -76 -22 -69 -38 13 -95 8 -128 -11 -83 -49 -95
-214 -19 -268 27 -19 91 -21 122 -4 25 13 47 40 41 49 -2 4 3 20 11 35 16 30
19 86 6 118 -4 10 -18 24 -32 32 -18 10 -20 13 -7 14 24 0 47 38 50 83 2 20 6
37 11 37 4 0 10 0 15 0 10 0 9 -312 -1 -328 -5 -7 -17 -10 -28 -7 -15 5 -19 1
-19 -19 0 -24 4 -26 40 -26 l40 0 0 220 0 220 -40 0 -40 0 0 -76z m-71 -105
c-8 -5 -21 -9 -29 -9 -25 0 -55 -60 -56 -112 -2 -42 2 -51 27 -72 33 -28 36
-36 14 -36 -26 0 -73 54 -80 90 -10 53 19 110 69 137 24 13 75 15 55 2z m57
-55 c23 -34 9 -90 -29 -118 -26 -19 -30 -19 -55 -5 -37 20 -44 97 -13 128 30
30 76 27 97 -5z"/>
<path d="M620 572 c0 -65 -3 -160 -6 -210 l-7 -92 47 0 46 0 0 110 c0 67 4
110 10 110 6 0 10 -6 11 -12 0 -7 21 -56 47 -108 44 -88 49 -95 79 -98 31 -3
34 0 71 75 47 92 73 153 66 153 -3 0 -18 -14 -34 -30 -20 -21 -30 -26 -30 -15
0 8 4 15 10 15 5 0 9 3 7 8 -1 4 13 39 31 79 56 122 80 121 83 -2 5 -197 5
-227 -3 -231 -4 -3 -8 0 -8 6 0 6 -4 9 -8 6 -4 -2 -9 25 -10 61 -5 119 -21
107 -22 -14 l0 -113 47 0 46 0 -6 113 c-4 61 -7 156 -7 210 l0 97 -40 0 -40 0
-73 -152 -73 -153 -75 150 -74 150 -42 3 -43 3 0 -119z m83 48 c6 -16 15 -30
20 -30 4 0 6 -4 3 -8 -3 -5 15 -43 39 -86 25 -43 42 -83 38 -89 -3 -5 -1 -7 4
-4 6 4 13 0 17 -8 7 -19 45 -19 52 0 4 8 12 15 20 15 8 0 14 5 14 12 0 6 2 9
5 6 8 -8 -20 -70 -44 -97 -27 -31 -41 -20 -83 66 -18 35 -42 73 -55 85 -22 20
-25 21 -39 6 -11 -11 -18 -41 -22 -87 -5 -71 -21 -108 -23 -54 -4 104 4 280
13 290 17 20 29 15 41 -17z"/>
<path d="M1821 653 c-1 -7 -6 -12 -12 -10 -24 5 -19 -23 5 -34 28 -13 76 0 76
21 0 14 -37 12 -43 -2 -3 -8 -9 -3 -15 12 -6 14 -11 19 -11 13z"/>
<path d="M1225 561 c-50 -23 -70 -45 -85 -98 -23 -76 9 -151 76 -179 49 -20
123 -18 162 6 38 23 39 27 11 56 -19 20 -23 21 -47 8 -15 -8 -37 -14 -48 -14
-23 0 -74 35 -74 51 0 5 43 9 95 9 l95 0 0 45 c0 64 -21 99 -70 119 -51 20
-66 20 -115 -3z m93 -57 c12 -8 22 -23 22 -34 0 -15 -8 -18 -60 -17 -33 0 -60
4 -60 9 0 14 48 58 62 58 8 0 24 -7 36 -16z m-113 -32 c-3 -3 3 -14 12 -24 13
-14 14 -21 5 -30 -16 -16 -15 -40 3 -74 16 -31 15 -37 -7 -29 -24 9 -52 68
-52 107 1 50 10 69 29 62 9 -4 13 -9 10 -12z m175 -32 c-8 -5 -21 -10 -29 -10
-11 0 -10 5 4 20 13 15 22 17 29 10 8 -8 6 -14 -4 -20z"/>
<path d="M2027 566 c-96 -35 -132 -127 -87 -222 35 -71 133 -97 210 -55 43 23
48 43 16 64 -22 15 -28 15 -53 2 -38 -20 -50 -19 -78 10 -65 64 20 179 87 118
18 -16 20 -15 45 10 23 23 25 28 12 43 -16 20 -70 44 -96 44 -10 -1 -35 -7
-56 -14z m37 -38 c-3 -4 -13 -8 -22 -8 -25 0 -52 -55 -52 -106 0 -35 6 -51 25
-70 29 -29 31 -34 10 -34 -8 0 -29 13 -45 29 -26 24 -30 36 -30 79 0 35 4 52
15 56 8 3 15 11 15 18 0 8 11 20 25 29 26 15 67 20 59 7z"/>
<path d="M2303 569 c-70 -21 -121 -106 -107 -180 15 -80 84 -126 171 -116 82
9 134 69 135 156 0 58 -27 111 -67 129 -38 17 -96 22 -132 11z m32 -39 c-3 -5
-14 -10 -24 -10 -40 0 -64 -110 -34 -160 9 -17 21 -30 25 -30 4 0 8 -4 8 -10
0 -15 -29 -12 -45 4 -41 41 -49 115 -16 165 19 29 104 70 86 41z m89 -5 c68
-45 52 -179 -24 -207 l-25 -9 27 28 c26 28 54 123 36 123 -5 0 -7 4 -4 8 3 5
-9 23 -26 40 -32 34 -23 43 16 17z m-39 -31 c46 -18 37 -126 -13 -145 -51 -19
-102 31 -86 85 17 58 50 78 99 60z"/>
<path d="M1798 423 l2 -148 40 0 c22 0 40 3 40 8 0 4 0 70 0 147 l0 140 -43 0
-42 0 3 -147z m59 3 c-2 -83 -10 -112 -28 -101 -8 6 -12 182 -4 195 3 5 12 7
20 4 12 -5 14 -25 12 -98z"/>
<path d="M600 170 c0 -44 20 -61 49 -43 38 24 20 83 -25 83 -21 0 -24 -5 -24
-40z m48 -3 c2 -19 -1 -27 -12 -27 -11 0 -16 10 -16 31 0 38 24 35 28 -4z"/>
<path d="M980 171 c0 -22 5 -43 11 -46 15 -10 16 -5 11 43 -5 53 -22 55 -22 3z"/>
<path d="M1075 169 c-8 -44 2 -68 12 -30 l6 23 13 -23 13 -24 9 24 9 25 8 -25
c8 -23 8 -22 12 9 3 19 1 41 -2 50 -5 14 -10 10 -24 -17 l-18 -34 -11 32 c-6
17 -13 31 -16 31 -2 0 -7 -18 -11 -41z"/>
<path d="M1316 168 c0 -24 2 -45 4 -48 5 -10 16 56 12 73 -8 33 -18 17 -16
-25z"/>
<path d="M857 192 c-10 -15 6 -72 19 -72 11 0 12 4 2 19 -9 15 -9 23 0 34 10
12 9 16 -2 20 -9 4 -17 3 -19 -1z"/>
<path d="M1458 195 c-8 -9 6 -68 18 -72 7 -2 10 11 10 33 -2 35 -14 52 -28 39z"/>
<path d="M690 161 c0 -17 5 -33 10 -36 6 -4 10 8 10 29 0 20 -4 36 -10 36 -5
0 -10 -13 -10 -29z"/>
<path d="M741 176 c-19 -23 -9 -51 17 -49 28 3 28 -5 0 -17 -23 -10 -23 -10 2
-7 22 2 25 7 25 42 0 43 -21 58 -44 31z"/>
<path d="M810 161 c0 -17 5 -33 10 -36 6 -4 10 8 10 29 0 20 -4 36 -10 36 -5
0 -10 -13 -10 -29z"/>
<path d="M910 169 c-14 -25 2 -48 31 -46 28 2 28 67 -1 67 -10 0 -24 -9 -30
-21z"/>
<path d="M1184 164 c-8 -32 4 -45 34 -37 15 3 21 11 18 20 -3 8 -6 21 -6 29 0
26 -39 16 -46 -12z"/>
<path d="M1260 152 c0 -19 4 -31 10 -27 6 3 10 14 10 24 0 9 5 22 11 28 9 9 7
12 -10 10 -17 -1 -21 -8 -21 -35z"/>
<path d="M1346 163 c2 -39 3 -43 12 -43 11 0 8 63 -3 67 -6 2 -10 -9 -9 -24z"/>
<path d="M1394 176 c-9 -24 0 -51 19 -54 9 -2 17 2 17 8 0 6 -4 8 -10 5 -17
-10 -11 7 7 20 18 13 10 35 -13 35 -8 0 -17 -6 -20 -14z"/>
<path d="M1510 161 c0 -17 5 -33 10 -36 6 -4 10 8 10 29 0 20 -4 36 -10 36 -5
0 -10 -13 -10 -29z"/>
<path d="M1557 155 c8 -40 13 -45 13 -12 0 15 5 27 10 27 6 0 10 -11 10 -25 0
-14 5 -25 11 -25 6 0 9 14 7 33 -3 27 -7 32 -30 32 -24 1 -26 -2 -21 -30z"/>
<path d="M1634 166 c-6 -25 1 -46 15 -46 5 0 6 11 4 24 -3 13 0 27 6 30 7 4
10 -6 9 -28 -1 -23 -7 -37 -17 -40 -9 -3 -5 -4 9 -3 22 2 25 6 25 42 0 34 -4
40 -22 43 -17 3 -24 -3 -29 -22z"/>
<path d="M1715 160 c-4 -7 120 -10 364 -10 241 0 371 4 371 10 0 6 -128 10
-364 10 -233 0 -367 -4 -371 -10z"/>
</g>
</svg>
