<?xml version="1.0" encoding="UTF-8"?>
<svg version="1.1" xmlns="http://www.w3.org/2000/svg" width="750" height="460">
<path d="M0 0 C247.5 0 495 0 750 0 C750 151.8 750 303.6 750 460 C502.5 460 255 460 0 460 C0 308.2 0 156.4 0 0 Z " fill="#FEFEFE" transform="translate(0,0)"/>
<path d="M0 0 C1.12595581 0.01027222 1.12595581 0.01027222 2.2746582 0.02075195 C7.85320673 0.18302153 12.03963722 1.00284481 16.5625 4.4375 C17.59375 5.13875 18.625 5.84 19.6875 6.5625 C27.86067974 13.8754883 32.08077328 26.39061003 36.75 36.125 C37.51190517 37.70444925 38.27419775 39.28371168 39.03686523 40.86279297 C43.51149769 50.13559421 47.95986438 59.42115441 52.3894043 68.71557617 C56.75115539 77.86028627 61.17963354 86.97241411 65.60598755 96.08596802 C69.49210631 104.0879984 73.36625195 112.09501209 77.19287109 120.12573242 C78.91702847 123.74400422 80.64987078 127.35807737 82.38378906 130.97167969 C83.16611936 132.60828615 83.94415836 134.24695124 84.71777344 135.88769531 C85.77987978 138.13898972 86.856795 140.38258889 87.9375 142.625 C88.23527344 143.26703369 88.53304687 143.90906738 88.83984375 144.57055664 C90.78644456 148.55923336 92.81066203 151.04890751 96.5625 153.4375 C102.53830494 154.11218766 106.23273671 153.10238164 111.5625 150.4375 C109.59813039 156.71299513 106.77938763 162.48343232 103.86962891 168.35864258 C102.94812101 170.2284492 102.0463658 172.10697198 101.14453125 173.98632812 C96.10242091 184.2979649 90.56941606 193.3948719 79.4375 197.625 C68.69474718 199.87751269 59.51848369 198.25831973 50.25 192.3125 C42.76949461 184.31009888 38.56007265 173.54568123 33.875 163.75 C33.16202072 162.26836232 32.4486369 160.78691924 31.73486328 159.30566406 C29.67116209 155.01925864 27.6159742 150.7288119 25.5625 146.4375 C25.03930176 145.34550293 24.51610352 144.25350586 23.97705078 143.12841797 C22.19533227 139.40894952 20.41524447 135.68871514 18.63916016 131.96655273 C13.56004398 121.32266408 8.42430829 110.70613265 3.29171753 100.08796692 C1.13711916 95.6295643 -1.01246488 91.1687646 -3.16015625 86.70703125 C-6.57572617 79.61222665 -10.00272786 72.52303286 -13.4375 65.4375 C-13.87916504 64.52403809 -14.32083008 63.61057617 -14.77587891 62.66943359 C-15.88535576 60.38032771 -17.00299597 58.09548521 -18.125 55.8125 C-18.42776855 55.18561279 -18.73053711 54.55872559 -19.04248047 53.9128418 C-20.93333008 50.10106833 -22.5879654 47.3622673 -26.4375 45.4375 C-31.72660111 45.03496664 -36.65040155 44.88438083 -41.4375 47.4375 C-39.38321832 40.85654896 -36.40301741 34.778196 -33.37231445 28.60693359 C-32.71124453 27.25178072 -32.05877265 25.89239727 -31.4152832 24.52880859 C-26.80858208 14.77219115 -21.94152243 6.45283625 -11.90234375 1.46484375 C-7.815507 0.25307592 -4.24005605 -0.05927827 0 0 Z " fill="#013E5B" transform="translate(309.4375,11.5625)"/>
<path d="M0 0 C0.79124268 0.01023193 1.58248535 0.02046387 2.39770508 0.03100586 C11.59408753 0.36571284 16.97901982 4.04899815 23.30725098 10.48095703 C26.41945061 14.17170244 28.34727147 18.37280513 30.390625 22.71875 C30.86514099 23.69751099 31.33965698 24.67627197 31.82855225 25.68469238 C33.33695679 28.80421926 34.82499 31.93296496 36.3125 35.0625 C37.29424126 37.10090231 38.27730477 39.13866835 39.26171875 41.17578125 C41.72315111 46.27856151 44.16741929 51.38932528 46.60473633 56.50366211 C48.99791233 61.52528364 51.39739871 66.54388661 53.796875 71.5625 C54.25330383 72.51745361 54.70973267 73.47240723 55.17999268 74.45629883 C58.7942107 82.01340442 62.43904056 89.55524373 66.1026001 97.08853149 C71.16588194 107.50082435 76.20406381 117.92419709 81.1875 128.375 C82.44911881 131.01086164 83.7114977 133.64635774 84.97412109 136.28173828 C85.96587206 138.36001049 86.94685104 140.4430135 87.92578125 142.52734375 C88.44527344 143.61144531 88.96476563 144.69554687 89.5 145.8125 C89.91121094 146.68390625 90.32242188 147.5553125 90.74609375 148.453125 C92.26633602 150.88912152 93.58026602 152.12445301 96.0625 153.5625 C100.43001678 154.35943508 104.08056288 154.08480698 108 152 C108.680625 151.525625 109.36125 151.05125 110.0625 150.5625 C110.7225 150.8925 111.3825 151.2225 112.0625 151.5625 C109.76446288 156.28300976 107.45285089 160.99653624 105.12890625 165.7043457 C104.34169358 167.30377473 103.55809403 168.90498772 102.77832031 170.50805664 C101.65095007 172.82406724 100.51034879 175.13315683 99.3671875 177.44140625 C99.02630096 178.14898575 98.68541443 178.85656525 98.334198 179.58558655 C94.9881021 186.28149611 90.92205229 192.2627035 83.9375 195.4375 C83.10992187 195.82679688 82.28234375 196.21609375 81.4296875 196.6171875 C74.13543995 199.53007183 66.27973595 199.67806524 58.875 197 C48.14514551 192.03341648 43.95561304 184.3969514 39.20458984 174.0390625 C37.50019385 170.34316833 35.73444637 166.67720344 33.97387695 163.0078125 C33.06878953 161.11904331 32.16726072 159.22856229 31.27026367 157.3359375 C28.65477859 151.82531502 25.97059297 146.35368294 23.234375 140.90234375 C19.02241607 132.51086115 14.90769508 124.07396011 10.8125 115.625 C10.06560413 114.08560631 9.3186964 112.54621838 8.57177734 111.00683594 C4.26021009 102.11678656 -0.03695826 93.21993815 -4.3125 84.3125 C-4.78389404 83.33144287 -5.25528809 82.35038574 -5.7409668 81.33959961 C-8.18567137 76.24394908 -10.60970326 71.13935956 -13.01171875 66.0234375 C-13.5133252 64.9602832 -14.01493164 63.89712891 -14.53173828 62.80175781 C-15.48481004 60.78024412 -16.4327133 58.75628254 -17.37451172 56.72949219 C-17.79877441 55.83133789 -18.22303711 54.93318359 -18.66015625 54.0078125 C-19.02890869 53.21906738 -19.39766113 52.43032227 -19.77758789 51.61767578 C-21.70638177 48.20016644 -23.19159401 46.81113533 -26.9375 45.5625 C-32.72236795 44.9895226 -36.87322769 45.44602473 -41.9375 48.5625 C-39.88528377 41.97011535 -36.86698273 35.90388436 -33.81738281 29.73193359 C-33.15095924 28.37609516 -32.49168425 27.01671806 -31.83984375 25.65380859 C-26.94718135 15.42527198 -21.8483906 6.01928641 -10.99560547 1.21142578 C-7.33181612 0.05622387 -3.81863129 -0.07449201 0 0 Z " fill="#013E5B" transform="translate(424.9375,11.4375)"/>
<path d="M0 0 C6.93 0 13.86 0 21 0 C30.04769808 18.005815 39.08694976 36.00505861 47.71875 54.21484375 C50.71377137 60.52632187 53.83702035 66.77119707 57 73 C62.2459471 63.48514465 67.05908003 53.80779018 71.70898438 43.98852539 C74.99032418 37.07225314 78.36803478 30.21138375 81.8125 23.375 C85.70353797 15.64831493 89.4413371 7.88676643 93 0 C99.93 0 106.86 0 114 0 C114.90023982 9.56440035 115.2887071 19.09430163 115.53515625 28.69140625 C115.57834668 30.2878427 115.62176266 31.88427306 115.66539001 33.48069763 C115.75571517 36.81300641 115.84370983 40.14536579 115.92993164 43.4777832 C116.03907899 47.69123521 116.15349441 51.90452393 116.26949501 56.11779213 C116.71649181 72.41419658 117.13342274 88.695741 117 105 C109.08 105 101.16 105 93 105 C92.93941406 102.50308594 92.87882812 100.00617188 92.81640625 97.43359375 C92.75424311 94.96099923 92.69101221 92.4884341 92.62768555 90.01586914 C92.58490817 88.32383956 92.54320562 86.6317824 92.50268555 84.93969727 C92.24627008 74.26838183 91.81527209 63.64455248 91 53 C90.55684448 53.93175049 90.55684448 53.93175049 90.10473633 54.88232422 C84.10851771 67.472888 78.04068244 80.02269712 71.8125 92.5 C71.24829346 93.6329248 70.68408691 94.76584961 70.1027832 95.93310547 C69.58031006 96.97611816 69.05783691 98.01913086 68.51953125 99.09375 C68.05651611 100.01865234 67.59350098 100.94355469 67.11645508 101.89648438 C66 104 66 104 65 105 C63.65732587 105.08631874 62.31025678 105.10706473 60.96484375 105.09765625 C60.15595703 105.09443359 59.34707031 105.09121094 58.51367188 105.08789062 C57.66353516 105.07951172 56.81339844 105.07113281 55.9375 105.0625 C55.08349609 105.05798828 54.22949219 105.05347656 53.34960938 105.04882812 C51.23304337 105.03700373 49.11651315 105.01906769 47 105 C43.91318965 98.90283728 40.8360472 92.80086555 37.76538086 86.69555664 C36.72101958 84.62186202 35.67450081 82.54925242 34.62573242 80.4777832 C33.11319997 77.48936399 31.60863022 74.49704782 30.10546875 71.50390625 C29.63972946 70.58791153 29.17399017 69.67191681 28.69413757 68.72816467 C25.96376891 63.26883271 23.74423558 57.85168845 22 52 C21.34 52 20.68 52 20 52 C20.00785522 53.18251343 20.00785522 53.18251343 20.01586914 54.38891602 C20.1128037 71.30092851 19.87775595 88.10319801 19 105 C11.41 105 3.82 105 -4 105 C-3.75695698 97.2866566 -3.51353124 89.57332549 -3.26950932 81.86001301 C-3.15609843 78.27476487 -3.04282781 74.68951243 -2.92993164 71.10424805 C-2.68915743 63.46062031 -2.44631362 55.81706515 -2.19896889 48.17364693 C-2.08837917 44.75446231 -1.97881397 41.33525205 -1.87176514 37.91595459 C-1.74977127 34.02068626 -1.62308528 30.12557748 -1.49609375 26.23046875 C-1.46089127 25.08500076 -1.42568878 23.93953278 -1.38941956 22.75935364 C-1.13624158 15.14976798 -0.62731123 7.58814737 0 0 Z " fill="#02B9D8" transform="translate(156,287)"/>
<path d="M0 0 C7.59 0 15.18 0 23 0 C23 36.3 23 72.6 23 110 C15.41 110 7.82 110 0 110 C-0.495 106.04 -0.495 106.04 -1 102 C-1.4125 102.39832031 -1.825 102.79664063 -2.25 103.20703125 C-10.36593292 110.65267507 -18.13223387 111.80380147 -28.86328125 111.40234375 C-36.70102351 110.8332609 -41.92098585 107.42142648 -47.375 101.9375 C-55.75981564 91.53286035 -56.12760614 79.23859448 -55.27050781 66.39648438 C-54.1625574 56.58092364 -48.37191264 47.48643253 -40.8671875 41.21875 C-31.12299173 34.29256206 -21.86810341 32.99467111 -10 34 C-6.7841527 34.76567793 -3.40846618 35.59153382 -1 38 C-0.67 25.46 -0.34 12.92 0 0 Z " fill="#04BAD8" transform="translate(414,282)"/>
<path d="M0 0 C1.33611328 -0.02416992 1.33611328 -0.02416992 2.69921875 -0.04882812 C13.47908581 -0.05665096 22.00488949 2.67125113 29.75 10.3125 C37.42758385 19.34790981 39.3682183 28.89304101 39.09765625 40.5625 C38.06063769 51.74831817 33.17265275 61.24545573 25.1875 69.0625 C14.4605179 77.68024405 2.39981517 78.5917927 -10.85644531 77.60791016 C-16.20845762 76.94737008 -20.67931904 75.09667114 -25.25 72.3125 C-25.85714844 71.9515625 -26.46429687 71.590625 -27.08984375 71.21875 C-34.8952966 65.65761311 -38.70124719 55.39678121 -40.25 46.3125 C-40.8724037 39.73280373 -40.12478691 33.63042353 -38.25 27.3125 C-38.01667969 26.50941406 -37.78335938 25.70632813 -37.54296875 24.87890625 C-34.23436577 15.19482174 -27.56442405 7.89917296 -18.48828125 3.25 C-17.74964844 2.940625 -17.01101563 2.63125 -16.25 2.3125 C-14.94869141 1.76529297 -14.94869141 1.76529297 -13.62109375 1.20703125 C-9.04141988 -0.00820087 -4.71788083 -0.01677767 0 0 Z " fill="#03B9D8" transform="translate(588.25,315.6875)"/>
<path d="M0 0 C7.84948087 5.58185306 11.24872952 17.05560486 15.08032227 25.60205078 C15.89099652 27.40317724 16.72457109 29.19394056 17.55859375 30.984375 C18.03997803 32.04366211 18.5213623 33.10294922 19.01733398 34.19433594 C21.44426863 37.98739087 24.52522256 40.47471205 28.97265625 41.49609375 C33.47866055 41.35730512 36.11554933 40.50087839 39.8125 38 C40.4725 38.33 41.1325 38.66 41.8125 39 C39.51446288 43.72050976 37.20285089 48.43403624 34.87890625 53.1418457 C34.09169358 54.74127473 33.30809403 56.34248772 32.52832031 57.94555664 C31.40095007 60.26156724 30.26034879 62.57065683 29.1171875 64.87890625 C28.6058577 65.9402755 28.6058577 65.9402755 28.084198 67.02308655 C23.28887219 76.61906614 17.11749036 82.53232786 6.8125 86 C-2.30850118 87.40736296 -10.64371936 85.94319648 -18.20849609 80.5625 C-23.45759978 76.16556643 -26.51085551 71.6817405 -29.5 65.5625 C-29.91572266 64.75490234 -30.33144531 63.94730469 -30.75976562 63.11523438 C-38.24397898 48.3490837 -38.24397898 48.3490837 -37.1875 41 C-35.5960441 37.00428453 -33.63435453 33.23694193 -31.625 29.4375 C-30.51504912 27.29587128 -29.40567142 25.1539454 -28.296875 23.01171875 C-27.75869141 21.98095215 -27.22050781 20.95018555 -26.66601562 19.88818359 C-25.40895669 17.43260116 -24.21916271 14.96789048 -23.078125 12.45703125 C-18.62323099 2.67820608 -18.62323099 2.67820608 -14.75 0.125 C-9.38075258 -1.57055182 -5.4851291 -1.72082482 0 0 Z " fill="#013F5C" transform="translate(252.1875,124)"/>
<path d="M0 0 C8.7865433 5.97552274 12.98082306 13.09552155 15.0390625 23.38671875 C15.0390625 29.65671875 15.0390625 35.92671875 15.0390625 42.38671875 C-0.8009375 42.38671875 -16.6409375 42.38671875 -32.9609375 42.38671875 C-29.96378839 48.38101697 -28.96820151 49.73558874 -23.9609375 53.38671875 C-17.4365327 55.56152035 -10.18732079 55.28956703 -3.8984375 52.51171875 C-1.43380727 51.27251919 0.73326594 49.92391646 3.0390625 48.38671875 C6.9990625 52.67671875 10.9590625 56.96671875 15.0390625 61.38671875 C9.64784411 68.22436159 4.63031544 72.12078784 -3.9609375 74.38671875 C-18.47447795 75.70154931 -32.50248765 75.62676024 -44.18359375 66 C-45.06337891 65.20142578 -45.06337891 65.20142578 -45.9609375 64.38671875 C-46.51652344 63.88527344 -47.07210938 63.38382812 -47.64453125 62.8671875 C-54.61934977 55.71843336 -56.3305319 46.41916779 -56.3984375 36.76171875 C-56.2109755 24.93338734 -53.05589909 15.96040338 -44.921875 7.1875 C-33.60584643 -3.62870399 -14.47512158 -7.28870963 0 0 Z " fill="#03B9D8" transform="translate(338.9609375,318.61328125)"/>
<path d="M0 0 C3.5871773 2.35431719 6.91968208 5.20647909 9 9 C8.47687949 12.99514607 6.57780395 14.51459304 3.4375 16.95507812 C2.839375 17.40302734 2.24125 17.85097656 1.625 18.3125 C1.03460937 18.77978516 0.44421875 19.24707031 -0.1640625 19.72851562 C-1.8984375 21.05078125 -1.8984375 21.05078125 -5 23 C-8.38018638 21.87327121 -9.5572011 20.51913637 -12 18 C-15.7300811 15.51327927 -18.68175256 15.48279546 -23 16 C-28.67507225 18.00296668 -32.30675089 21.61350179 -35 27 C-35.17794636 29.76546142 -35.27761722 32.48263275 -35.3125 35.25 C-35.35600586 36.37728516 -35.35600586 36.37728516 -35.40039062 37.52734375 C-35.46054379 42.83007671 -34.52605916 45.80684857 -31 50 C-27.35603999 52.42930667 -25.46087919 52.29874985 -21.125 52.3125 C-19.30355469 52.33763672 -19.30355469 52.33763672 -17.4453125 52.36328125 C-13.75135525 51.97378236 -11.92620208 51.23922633 -9 49 C-8.34 48.01 -7.68 47.02 -7 46 C-2.64352355 47.44950405 0.31757289 49.67747112 3.8125 52.625 C4.78832031 53.44226563 5.76414062 54.25953125 6.76953125 55.1015625 C7.50558594 55.72804688 8.24164062 56.35453125 9 57 C6.75916762 63.49952874 2.56456449 66.90175378 -3.26953125 70.3359375 C-13.42752744 74.84704762 -27.66678178 74.86526574 -38.1875 71.4375 C-47.58856856 67.23137042 -54.07011096 61.15272507 -57.96484375 51.64453125 C-61.67240031 40.35100643 -61.81203809 27.38937979 -56.53515625 16.64453125 C-51.0235882 7.15004889 -44.25841536 0.59601219 -33.734375 -3.16796875 C-22.85648481 -5.5915991 -9.88514713 -5.50362246 0 0 Z " fill="#03B9D8" transform="translate(540,320)"/>
<path d="M0 0 C7.26 0 14.52 0 22 0 C22 24.75 22 49.5 22 75 C14.74 75 7.48 75 0 75 C0 50.25 0 25.5 0 0 Z " fill="#00B9D8" transform="translate(449,317)"/>
<path d="M0 0 C5.32468076 2.66234038 7.41755658 5.83511316 10 11 C10.67675448 18.73061845 10.39850712 25.75396395 5.41796875 31.9765625 C1.11939991 36.52798833 -2.16699366 38.74705301 -8.5 39.3125 C-13.10051746 38.90173951 -15.27611013 37.85211308 -18.41796875 34.4765625 C-22.26920582 29.3631553 -22.75420225 24.55585106 -22.4765625 18.2578125 C-21.60301353 12.28617449 -19.59192028 7.49049731 -15.203125 3.2734375 C-10.44441006 -0.13380239 -5.74972211 -1.14994442 0 0 Z " fill="#F9FDFE" transform="translate(404,335)"/>
<path d="M0 0 C4.89600455 2.40181355 7.35562834 5.28346315 10 10 C11.03088194 17.52462644 11.13026144 25.44855082 7 32 C2.94846056 36.6748532 0.33572209 38.77025684 -5.8125 39.375 C-10.33703835 39.23176508 -13.54838244 37.91858295 -17 35 C-21.4386923 29.65080671 -21.41783561 25.00570624 -21.3359375 18.18359375 C-20.79859147 13.09130293 -19.53851877 9.10568441 -16.125 5.25 C-15.63257813 4.67765625 -15.14015625 4.1053125 -14.6328125 3.515625 C-10.30292251 -0.50350733 -5.66090877 -0.7876047 0 0 Z " fill="#FBFDFE" transform="translate(593,335)"/>
<path d="M0 0 C3.93922306 1.31307435 5.62994294 2.58125122 8.375 5.6875 C10.42909733 9.8746984 10.31774533 12.3926927 10 17 C6.625 17.1875 6.625 17.1875 3 17 C2.34 16.01 1.68 15.02 1 14 C0.34 14 -0.32 14 -1 14 C-1.66 15.98 -2.32 17.96 -3 20 C-5.26954631 16.59568053 -5.36549949 14.83475798 -5.625 10.8125 C-5.69976562 9.72582031 -5.77453125 8.63914062 -5.8515625 7.51953125 C-5.90054687 6.68808594 -5.94953125 5.85664063 -6 5 C-6.66 5 -7.32 5 -8 5 C-8.66 8.3 -9.32 11.6 -10 15 C-10.66 14.67 -11.32 14.34 -12 14 C-12 13.34 -12 12.68 -12 12 C-12.66 12 -13.32 12 -14 12 C-14.66 13.65 -15.32 15.3 -16 17 C-16.99 16.67 -17.98 16.34 -19 16 C-18.66256536 9.47626361 -17.63140843 6.63140843 -13 2 C-8.72747682 -0.84834879 -5.01180499 -0.4925799 0 0 Z " fill="#0D4863" transform="translate(464,281)"/>
<path d="M0 0 C10.18215613 -0.49070632 10.18215613 -0.49070632 14.125 1.875 C16.54891563 4.62210438 16.96483417 5.54284416 17.25 9.25 C16.97920358 13.31194623 16.15128424 15.57388065 14 19 C9.43362969 22.04424687 5.43284541 21.12783166 0 21 C0 14.07 0 7.14 0 0 Z " fill="#154E69" transform="translate(151,408)"/>
<path d="M0 0 C2 3 2 3 2 9 C-7.24 9 -16.48 9 -26 9 C-21.53658537 -1.41463415 -21.53658537 -1.41463415 -16.1875 -3.8125 C-9.20772163 -4.41076672 -5.61595139 -4.67995949 0 0 Z " fill="#FCFEFE" transform="translate(332,336)"/>
<path d="M0 0 C1.32 0 2.64 0 4 0 C4.83739781 2.1234016 5.66980283 4.2487728 6.5 6.375 C6.9640625 7.55835938 7.428125 8.74171875 7.90625 9.9609375 C9 13 9 13 9 15 C9.66 15 10.32 15 11 15 C11.12246094 14.28457031 11.24492187 13.56914062 11.37109375 12.83203125 C12.01135375 9.94887287 12.93551556 7.41407527 14.0625 4.6875 C14.60583984 3.36298828 14.60583984 3.36298828 15.16015625 2.01171875 C15.43730469 1.34785156 15.71445312 0.68398438 16 0 C17.32 0 18.64 0 20 0 C20.33 6.93 20.66 13.86 21 21 C19.68 21 18.36 21 17 21 C16.67 17.37 16.34 13.74 16 10 C14.68 13.63 13.36 17.26 12 21 C10.68 21 9.36 21 8 21 C6.68 17.7 5.36 14.4 4 11 C3.67 14.3 3.34 17.6 3 21 C1.68 21 0.36 21 -1 21 C-0.67 14.07 -0.34 7.14 0 0 Z " fill="#144D68" transform="translate(269,408)"/>
<path d="M0 0 C0.66 0.33 1.32 0.66 2 1 C2.08710289 4.10398978 2.14042309 7.20766548 2.1875 10.3125 C2.21263672 11.19357422 2.23777344 12.07464844 2.26367188 12.98242188 C2.27817383 14.25375977 2.27817383 14.25375977 2.29296875 15.55078125 C2.31653442 16.72120972 2.31653442 16.72120972 2.34057617 17.9152832 C1.90910274 20.55639546 1.1321203 21.42292167 -1 23 C-4.09501208 23.25265405 -6.20129973 23.39935013 -9 22 C-9 21.01 -9 20.02 -9 19 C-6.69 19 -4.38 19 -2 19 C-2 17.68 -2 16.36 -2 15 C-2.33 15.33 -2.66 15.66 -3 16 C-5.99894961 16.26077823 -8.18003295 16.43731576 -10.875 15 C-12.70297293 11.75027035 -12.72784944 8.56299632 -12 5 C-8.58107197 0.02701377 -5.88972799 -0.66676166 0 0 Z " fill="#235871" transform="translate(195,413)"/>
<path d="M0 0 C1.69433918 3.0469629 2.49467112 5.82821466 3.125 9.25 C3.29257812 10.14203125 3.46015625 11.0340625 3.6328125 11.953125 C3.75398438 12.62859375 3.87515625 13.3040625 4 14 C4.30679687 13.38640625 4.61359375 12.7728125 4.9296875 12.140625 C6.46484375 9.0703125 6.46484375 9.0703125 8 6 C8.33 6.66 8.66 7.32 9 8 C11.97 8 14.94 8 18 8 C16.82751696 12.42938038 14.5465957 15.01786375 11.05859375 17.82421875 C7.39401791 19.91726871 4.06158929 19.83958648 0 19 C-3.85573936 17.59317618 -6.47065391 15.71717858 -8.9375 12.375 C-10 10 -10 10 -10 8 C-8.68 8 -7.36 8 -6 8 C-5.67 7.01 -5.34 6.02 -5 5 C-3.68 5.99 -2.36 6.98 -1 8 C-0.67 5.36 -0.34 2.72 0 0 Z " fill="#104A65" transform="translate(456,291)"/>
<path d="M0 0 C0.66 0.33 1.32 0.66 2 1 C2.28391135 4.10204396 2.52121382 7.20594256 2.75 10.3125 C2.83121094 11.19357422 2.91242188 12.07464844 2.99609375 12.98242188 C3.43921846 19.45696627 3.43921846 19.45696627 1.28125 22.125 C-2.46407838 23.56156431 -5.09649714 22.71564219 -9 22 C-9 21.01 -9 20.02 -9 19 C-6.69 19 -4.38 19 -2 19 C-1.34 17.35 -0.68 15.7 0 14 C-0.99 14.66 -1.98 15.32 -3 16 C-6.0625 16.3125 -6.0625 16.3125 -9 16 C-11.66803806 11.99794291 -11.82370552 8.70446246 -11 4 C-7.71891949 0.04340292 -5.02015382 -0.55779487 0 0 Z " fill="#1F566F" transform="translate(419,413)"/>
<path d="M0 0 C0.66 0.33 1.32 0.66 2 1 C2.31241371 3.54941373 2.51303421 6.00361513 2.625 8.5625 C2.66367188 9.27341797 2.70234375 9.98433594 2.7421875 10.71679688 C2.83671783 12.47742425 2.91945817 14.23867728 3 16 C2.195625 15.814375 1.39125 15.62875 0.5625 15.4375 C-0.283125 15.293125 -1.12875 15.14875 -2 15 C-2.33 15.33 -2.66 15.66 -3 16 C-5.99894961 16.26077823 -8.18003295 16.43731576 -10.875 15 C-12.70297293 11.75027035 -12.72784944 8.56299632 -12 5 C-8.58107197 0.02701377 -5.88972799 -0.66676166 0 0 Z " fill="#245972" transform="translate(238,413)"/>
<path d="M0 0 C1.94090826 1.94090826 1.39919435 5.47293902 1.5625 8.0625 C1.64628906 9.35285156 1.73007812 10.64320313 1.81640625 11.97265625 C1.87699219 12.97167969 1.93757813 13.97070312 2 15 C1.01 15.33 0.02 15.66 -1 16 C-1.33 15.34 -1.66 14.68 -2 14 C-2.66 14.66 -3.32 15.32 -4 16 C-6.4375 16.375 -6.4375 16.375 -9 16 C-11.69642883 13.67549239 -11.98583627 12.09737567 -12.5 8.5625 C-12 5 -12 5 -9.9375 2.0625 C-6.33461577 -0.46718467 -4.31418769 -0.49779089 0 0 Z " fill="#104A65" transform="translate(307,413)"/>
<path d="M0 0 C0.99 0 1.98 0 3 0 C3 2.64 3 5.28 3 8 C4.11375 7.79375 5.2275 7.5875 6.375 7.375 C8.169375 7.189375 8.169375 7.189375 10 7 C10.66 7.66 11.32 8.32 12 9 C11.625 12.125 11.625 12.125 11 15 C10.34 15 9.68 15 9 15 C9.495 15.94875 9.99 16.8975 10.5 17.875 C12 21 12 21 12 23 C10.68 23 9.36 23 8 23 C6.68 20.36 5.36 17.72 4 15 C4.99 14.34 5.98 13.68 7 13 C7.33 12.01 7.66 11.02 8 10 C6.68 10.33 5.36 10.66 4 11 C3.67 14.96 3.34 18.92 3 23 C1.68 23 0.36 23 -1 23 C-1.02887512 19.35418313 -1.04675585 15.70839537 -1.0625 12.0625 C-1.07087891 11.02158203 -1.07925781 9.98066406 -1.08789062 8.90820312 C-1.09272461 7.42416992 -1.09272461 7.42416992 -1.09765625 5.91015625 C-1.10289307 4.99371338 -1.10812988 4.07727051 -1.11352539 3.13305664 C-1 1 -1 1 0 0 Z " fill="#1F556F" transform="translate(330,406)"/>
<path d="M0 0 C2 2 2 2 2.375 4.4375 C2 7 2 7 0.25 8.8125 C-2 10 -2 10 -6 10 C-6 10.99 -6 11.98 -6 13 C-3.36 13 -0.72 13 2 13 C2 13.66 2 14.32 2 15 C-1.04983996 16.52491998 -3.6423369 16.23562548 -7 16 C-9.1572119 14.42434062 -9.89541754 13.51160611 -10.43359375 10.87890625 C-10.4440132 4.70017466 -10.4440132 4.70017466 -8.375 1.4375 C-5.34778115 -0.39476404 -3.48142404 -0.45409879 0 0 Z " fill="#124B66" transform="translate(357,413)"/>
<path d="M0 0 C2.5 0.25 2.5 0.25 4.5 2.25 C4.6953125 5.5078125 4.6953125 5.5078125 4.625 9.375 C4.60695313 10.65632813 4.58890625 11.93765625 4.5703125 13.2578125 C4.54710937 14.24523437 4.52390625 15.23265625 4.5 16.25 C3.51 16.25 2.52 16.25 1.5 16.25 C1.17 12.29 0.84 8.33 0.5 4.25 C-0.82 4.58 -2.14 4.91 -3.5 5.25 C-3.83 8.88 -4.16 12.51 -4.5 16.25 C-5.82 16.25 -7.14 16.25 -8.5 16.25 C-8.83 11.3 -9.16 6.35 -9.5 1.25 C-7.025 1.745 -7.025 1.745 -4.5 2.25 C-2.5 0.25 -2.5 0.25 0 0 Z " fill="#1E556F" transform="translate(397.5,412.75)"/>
<path d="M0 0 C6 0 6 0 7.875 1.5625 C9.42190908 4.91413635 9.39126176 7.34822358 9 11 C7.875 13.4375 7.875 13.4375 6 15 C4.02 15 2.04 15 0 15 C0 10.05 0 5.1 0 0 Z " fill="#F4F7F8" transform="translate(155,411)"/>
<path d="M0 0 C1.32 0 2.64 0 4 0 C4.08710289 3.10398978 4.14042309 6.20766548 4.1875 9.3125 C4.21263672 10.19357422 4.23777344 11.07464844 4.26367188 11.98242188 C4.27817383 13.25375977 4.27817383 13.25375977 4.29296875 14.55078125 C4.31653442 15.72120972 4.31653442 15.72120972 4.34057617 16.9152832 C3.90910274 19.55639546 3.1321203 20.42292167 1 22 C-2.09501208 22.25265405 -4.20129973 22.39935013 -7 21 C-7 20.01 -7 19.02 -7 18 C-4.69 18 -2.38 18 0 18 C0 16.68 0 15.36 0 14 C-0.99 13.67 -1.98 13.34 -3 13 C-2.68289062 12.43796875 -2.36578125 11.8759375 -2.0390625 11.296875 C-0.93125475 8.84803683 -0.61024601 6.91612145 -0.375 4.25 C-0.26285156 3.05117188 -0.26285156 3.05117188 -0.1484375 1.828125 C-0.09945312 1.22484375 -0.05046875 0.6215625 0 0 Z " fill="#18506B" transform="translate(193,414)"/>
<path d="M0 0 C0.99 0 1.98 0 3 0 C3 1.32 3 2.64 3 4 C3.99 4 4.98 4 6 4 C6 4.99 6 5.98 6 7 C4.68 7 3.36 7 2 7 C2 10.3 2 13.6 2 17 C3.65 17 5.3 17 7 17 C7 17.99 7 18.98 7 20 C4.66705225 20.04241723 2.33297433 20.04092937 0 20 C-1 19 -1 19 -1.09765625 16.27734375 C-1.08605469 15.17519531 -1.07445312 14.07304687 -1.0625 12.9375 C-1.05347656 11.83277344 -1.04445313 10.72804688 -1.03515625 9.58984375 C-1.02355469 8.73519531 -1.01195312 7.88054687 -1 7 C-1.99 7 -2.98 7 -4 7 C-4 6.01 -4 5.02 -4 4 C-3.01 4 -2.02 4 -1 4 C-0.67 2.68 -0.34 1.36 0 0 Z " fill="#1D546D" transform="translate(367,409)"/>
<path d="M0 0 C0.99 0 1.98 0 3 0 C3 6.6 3 13.2 3 20 C3.99 20.33 4.98 20.66 6 21 C6 21.66 6 22.32 6 23 C4.02 23 2.04 23 0 23 C-1.19219354 20.61561291 -1.12916022 19.12343998 -1.1328125 16.46484375 C-1.13410156 15.57345703 -1.13539063 14.68207031 -1.13671875 13.76367188 C-1.13285156 12.83103516 -1.12898437 11.89839844 -1.125 10.9375 C-1.12886719 10.00099609 -1.13273438 9.06449219 -1.13671875 8.09960938 C-1.13542969 7.20951172 -1.13414062 6.31941406 -1.1328125 5.40234375 C-1.13168457 4.58241943 -1.13055664 3.76249512 -1.12939453 2.91772461 C-1 1 -1 1 0 0 Z " fill="#265B73" transform="translate(247,406)"/>
<path d="M0 0 C0.66 0 1.32 0 2 0 C2.13277344 0.85464844 2.26554687 1.70929688 2.40234375 2.58984375 C2.57894531 3.69457031 2.75554687 4.79929687 2.9375 5.9375 C3.11152344 7.03964844 3.28554688 8.14179688 3.46484375 9.27734375 C3.71845136 11.90426929 3.71845136 11.90426929 5 13 C5.66 11.35 6.32 9.7 7 8 C7.99 8.33 8.98 8.66 10 9 C10.33 9.99 10.66 10.98 11 12 C10.01 12 9.02 12 8 12 C7.01 14.64 6.02 17.28 5 20 C4.34 19.67 3.68 19.34 3 19 C2.3671875 16.71484375 2.3671875 16.71484375 1.875 13.9375 C1.70742188 13.01839844 1.53984375 12.09929687 1.3671875 11.15234375 C1.24601562 10.44207031 1.12484375 9.73179687 1 9 C0.34 10.32 -0.32 11.64 -1 13 C-2.32 12.34 -3.64 11.68 -5 11 C-5.66 11.66 -6.32 12.32 -7 13 C-7.33 12.34 -7.66 11.68 -8 11 C-7.0625 8.875 -7.0625 8.875 -6 7 C-5.34 7 -4.68 7 -4 7 C-3.67 7.66 -3.34 8.32 -3 9 C-2.01 6.03 -1.02 3.06 0 0 Z " fill="#DFE7EB" transform="translate(456,286)"/>
<path d="M0 0 C0.99 0 1.98 0 3 0 C3 1.32 3 2.64 3 4 C4.32 4 5.64 4 7 4 C7 4.66 7 5.32 7 6 C5.68 6 4.36 6 3 6 C3 9.3 3 12.6 3 16 C4.32 16 5.64 16 7 16 C7 16.99 7 17.98 7 19 C5.00045254 19.04254356 2.99958364 19.04080783 1 19 C0 18 0 18 -0.09765625 15.27734375 C-0.08605469 14.17519531 -0.07445312 13.07304687 -0.0625 11.9375 C-0.05347656 10.83277344 -0.04445312 9.72804688 -0.03515625 8.58984375 C-0.02355469 7.73519531 -0.01195312 6.88054687 0 6 C-0.99 6 -1.98 6 -3 6 C-3 5.01 -3 4.02 -3 3 C-2.01 3 -1.02 3 0 3 C0 2.01 0 1.02 0 0 Z " fill="#0C4763" transform="translate(215,410)"/>
<path d="M0 0 C0 1.32 0 2.64 0 4 C-1.32 4.33 -2.64 4.66 -4 5 C-4.33 8.63 -4.66 12.26 -5 16 C-6.32 16 -7.64 16 -9 16 C-9.33 11.05 -9.66 6.1 -10 1 C-8.68 1.33 -7.36 1.66 -6 2 C-3 0 -3 0 0 0 Z " fill="#1A516C" transform="translate(324,413)"/>
<path d="M0 0 C-0.99 0.4640625 -0.99 0.4640625 -2 0.9375 C-4.44176498 3.45557014 -4.27142406 4.28107372 -4.25 7.6875 C-4.18576167 9.1259798 -4.10836453 10.56416999 -4 12 C-3.01 12.33 -2.02 12.66 -1 13 C-1 13.66 -1 14.32 -1 15 C-3.875 15.1875 -3.875 15.1875 -7 15 C-9.06520632 11.90219052 -9.29477024 11.0459519 -9.3125 7.5 C-9.32925781 6.7265625 -9.34601563 5.953125 -9.36328125 5.15625 C-8.44538699 -0.29189657 -4.8300957 -0.32200638 0 0 Z " fill="#164F69" transform="translate(417,414)"/>
<path d="M0 0 C1.32 0 2.64 0 4 0 C4 4.29 4 8.58 4 13 C4.66 13 5.32 13 6 13 C6 13.99 6 14.98 6 16 C1.125 15.125 1.125 15.125 0 14 C-0.07271741 11.64686445 -0.08370868 9.29166332 -0.0625 6.9375 C-0.05347656 5.64714844 -0.04445313 4.35679687 -0.03515625 3.02734375 C-0.02355469 2.02832031 -0.01195312 1.02929688 0 0 Z " fill="#265A73" transform="translate(378,413)"/>
<path d="M0 0 C1.32 0 2.64 0 4 0 C4 4.29 4 8.58 4 13 C4.66 13 5.32 13 6 13 C6 13.99 6 14.98 6 16 C1.125 15.125 1.125 15.125 0 14 C-0.07271741 11.64686445 -0.08370868 9.29166332 -0.0625 6.9375 C-0.05347656 5.64714844 -0.04445312 4.35679687 -0.03515625 3.02734375 C-0.02355469 2.02832031 -0.01195312 1.02929688 0 0 Z " fill="#265A73" transform="translate(173,413)"/>
<path d="M0 0 C1.2065625 0.0309375 1.2065625 0.0309375 2.4375 0.0625 C2.80673077 6.4625 2.80673077 6.4625 0.9375 9.5 C0.4425 10.015625 -0.0525 10.53125 -0.5625 11.0625 C-1.5525 10.7325 -2.5425 10.4025 -3.5625 10.0625 C-3.58939216 8.58343108 -3.60884621 7.10422517 -3.625 5.625 C-3.63660156 4.80128906 -3.64820313 3.97757812 -3.66015625 3.12890625 C-3.51340586 0.02366796 -3.12550237 0.07623177 0 0 Z " fill="#EDF1F3" transform="translate(302.5625,415.9375)"/>
<path d="M0 0 C1.32 0 2.64 0 4 0 C4.33 4.95 4.66 9.9 5 15 C3.68 14.67 2.36 14.34 1 14 C-0.04976964 10.85069107 -0.10131595 8.61185544 -0.0625 5.3125 C-0.05347656 4.31863281 -0.04445312 3.32476562 -0.03515625 2.30078125 C-0.02355469 1.54152344 -0.01195312 0.78226562 0 0 Z " fill="#1C536D" transform="translate(236,414)"/>
<path d="M0 0 C1.65 0 3.3 0 5 0 C5.25 6.625 5.25 6.625 3 10 C1.68 9.67 0.36 9.34 -1 9 C-1.125 2.25 -1.125 2.25 0 0 Z " fill="#F8FAFB" transform="translate(231,416)"/>
<path d="M0 0 C1.65 0 3.3 0 5 0 C5.25 6.625 5.25 6.625 3 10 C1.68 9.67 0.36 9.34 -1 9 C-1.125 2.25 -1.125 2.25 0 0 Z " fill="#F8FAFB" transform="translate(188,416)"/>
<path d="M0 0 C2.5 0.125 2.5 0.125 3.5 1.125 C3.57271741 3.47813555 3.58370868 5.83333668 3.5625 8.1875 C3.55347656 9.47785156 3.54445313 10.76820313 3.53515625 12.09765625 C3.52355469 13.09667969 3.51195312 14.09570312 3.5 15.125 C2.51 15.125 1.52 15.125 0.5 15.125 C0.46261719 14.28195312 0.42523438 13.43890625 0.38671875 12.5703125 C0.32097656 11.47460938 0.25523437 10.37890625 0.1875 9.25 C0.12949219 8.15945313 0.07148438 7.06890625 0.01171875 5.9453125 C-0.15714844 5.01460938 -0.32601563 4.08390625 -0.5 3.125 C-1.49 2.465 -2.48 1.805 -3.5 1.125 C-2.5 0.125 -2.5 0.125 0 0 Z " fill="#03405D" transform="translate(398.5,413.875)"/>
<path d="M0 0 C1.32 0 2.64 0 4 0 C4 2.97 4 5.94 4 9 C2.02 9.99 2.02 9.99 0 11 C-1 10 -1 10 -1.1328125 7.96875 C-1.13023437 7.1540625 -1.12765625 6.339375 -1.125 5.5 C-1.12757813 4.6853125 -1.13015625 3.870625 -1.1328125 3.03125 C-1 1 -1 1 0 0 Z " fill="#F5F8F9" transform="translate(413,416)"/>
<path d="M0 0 C0.99 0 1.98 0 3 0 C3.06058594 0.83144531 3.12117187 1.66289062 3.18359375 2.51953125 C3.26738281 3.60621094 3.35117188 4.69289063 3.4375 5.8125 C3.55931641 7.43091797 3.55931641 7.43091797 3.68359375 9.08203125 C3.90212461 12.05989905 3.90212461 12.05989905 5 15 C3.35 14.67 1.7 14.34 0 14 C0 9.38 0 4.76 0 0 Z " fill="#06425F" transform="translate(203,414)"/>
<path d="M0 0 C0.99 0 1.98 0 3 0 C3.33 4.62 3.66 9.24 4 14 C3.01 14.33 2.02 14.66 1 15 C1 13.68 1 12.36 1 11 C0.34 11 -0.32 11 -1 11 C-0.67 7.37 -0.34 3.74 0 0 Z " fill="#06425F" transform="translate(305,414)"/>
<path d="M0 0 C1.99954746 -0.04254356 4.00041636 -0.04080783 6 0 C7 1 7 1 7.3125 3.375 C7 6 7 6 5.125 7.8125 C3 9 3 9 1 9 C1 8.01 1 7.02 1 6 C1.66 5.67 2.32 5.34 3 5 C3 4.01 3 3.02 3 2 C2.01 1.34 1.02 0.68 0 0 Z " fill="#0F4965" transform="translate(352,414)"/>
<path d="M0 0 C0.99 0.33 1.98 0.66 3 1 C3.33 1.99 3.66 2.98 4 4 C3.01 4 2.02 4 1 4 C0.01 6.64 -0.98 9.28 -2 12 C-2.66 11.67 -3.32 11.34 -4 11 C-4 10.01 -4 9.02 -4 8 C-3.34 8 -2.68 8 -2 8 C-1.855625 6.865625 -1.71125 5.73125 -1.5625 4.5625 C-1 1 -1 1 0 0 Z " fill="#D5E0E5" transform="translate(463,294)"/>
<path d="M0 0 C1.32 0 2.64 0 4 0 C3.67 1.32 3.34 2.64 3 4 C1.35 4.33 -0.3 4.66 -2 5 C-1.125 1.125 -1.125 1.125 0 0 Z " fill="#D2DDE3" transform="translate(352,416)"/>
<path d="M0 0 C0.94875 0.04125 1.8975 0.0825 2.875 0.125 C0.74067858 3.32648213 0.19080104 3.64706739 -3.25 4.8125 C-3.97445313 5.06386719 -4.69890625 5.31523437 -5.4453125 5.57421875 C-6.27675781 5.84685547 -6.27675781 5.84685547 -7.125 6.125 C-4.34782609 0.17391304 -4.34782609 0.17391304 0 0 Z " fill="#2C5F78" transform="translate(354.125,412.875)"/>
<path d="M0 0 C0.66 0 1.32 0 2 0 C4.1385485 2.1385485 4.42655063 3.13275314 5 6 C3.68 5.34 2.36 4.68 1 4 C0.34 4.66 -0.32 5.32 -1 6 C-1.33 5.34 -1.66 4.68 -2 4 C-1.0625 1.875 -1.0625 1.875 0 0 Z " fill="#E7EEF0" transform="translate(450,293)"/>
<path d="M0 0 C1.32 0 2.64 0 4 0 C3.6875 1.9375 3.6875 1.9375 3 4 C2.01 4.33 1.02 4.66 0 5 C-0.5625 3.0625 -0.5625 3.0625 -1 1 C-0.67 0.67 -0.34 0.34 0 0 Z " fill="#F4F8F9" transform="translate(334,416)"/>
<path d="M0 0 C2.31 0 4.62 0 7 0 C6.01 0.495 6.01 0.495 5 1 C5 1.66 5 2.32 5 3 C3.02 3.33 1.04 3.66 -1 4 C-0.67 2.68 -0.34 1.36 0 0 Z " fill="#34667D" transform="translate(300,413)"/>
<path d="M0 0 C0 1.32 0 2.64 0 4 C-1.65 4 -3.3 4 -5 4 C-5 3.01 -5 2.02 -5 1 C-3 0 -3 0 0 0 Z " fill="#215771" transform="translate(324,413)"/>
</svg>
